# xmcd
#
# Track frame offsets:
#	150
#	14455
#	39450
#	61990
#	90337
#	108002
#	124957
#	143127
#	163147
#	178420
#	201652
#	221107
#	240857
#	260825
#
# Disc length: 3821 seconds
#
# Revision: 0
# Processed by: cddbd v1.5.2PL0 Copyright (c) Steve Scherf et al.
# Submitted via: dBpowerAMP V4.0
#
DISCID=ce0eeb0e
DTITLE=Various Artist - Charme Hits 2
DYEAR=1998
DGENRE=R&B
TTITLE0=Blackbox - The Beat of Your Heart
TTITLE1=Shakatak - Let the Piano Play
TTITLE2=Zhané - Just Like That
TTITLE3=Indigo Blue - You and me
TTITLE4=Look Twice - Again
TTITLE5=Flip Da Scrip - Throw Your Hands in The Air
TTITLE6=Dru Hill - In My Bed
TTITLE7=Gina Thompson - You Bring The Sunshine
TTITLE8=Lutricia Mc Neal - Ain't That Just The Way
TTITLE9=Tyra - Fell This
TTITLE10=Don E. - Rhythm Of Life
TTITLE11=Valerie Harrison - Get Down
TTITLE12=Black Machine - How Gee
TTITLE13=De Barge - Rhythm Of he Night
EXTD=Charme Hits 2
EXTT0=
EXTT1=
EXTT2=
EXTT3=
EXTT4=
EXTT5=
EXTT6=
EXTT7=
EXTT8=
EXTT9=
EXTT10=
EXTT11=
EXTT12=
EXTT13=
PLAYORDER=
